<?xml version="1.0" encoding="UTF-8"?> <svg xmlns="http://www.w3.org/2000/svg" width="1728" height="360" viewBox="0 0 1728 360" fill="none"><g clip-path="url(#clip0_42_6044)"><path fill-rule="evenodd" clip-rule="evenodd" d="M1285.27 307.335C1295.1 307.335 1304.82 302.273 1304.82 293.541V291.516L1288.67 292.781C1279.09 293.541 1274.42 296.198 1274.42 300.501C1274.42 305.69 1279.97 307.335 1285.27 307.335ZM1291.19 254.815C1310.75 254.815 1324.37 263.168 1324.37 283.543V319.357H1306.08V307.714C1300.4 316.573 1291.57 320.623 1278.96 320.623C1265.84 320.623 1254.99 315.055 1254.99 301.64C1254.99 286.2 1271.01 282.91 1286.02 281.518L1304.82 280.253V279.367C1304.82 271.773 1298.64 268.736 1291.19 268.736C1283 268.736 1278.08 271.014 1276.94 275.95H1258.9C1259.66 260.51 1274.8 254.815 1291.19 254.815Z" fill="#232738"></path><path fill-rule="evenodd" clip-rule="evenodd" d="M1687.63 307.335C1697.47 307.335 1707.18 302.273 1707.18 293.541V291.516L1691.04 292.781C1681.45 293.541 1676.78 296.198 1676.78 300.501C1676.78 305.69 1682.33 307.335 1687.63 307.335ZM1693.56 254.815C1713.11 254.815 1726.73 263.168 1726.73 283.543V319.357H1708.44V307.714C1702.77 316.573 1693.94 320.623 1681.32 320.623C1668.21 320.623 1657.36 315.055 1657.36 301.64C1657.36 286.201 1673.38 282.91 1688.39 281.518L1707.18 280.253V279.367C1707.18 271.774 1701 268.736 1693.56 268.736C1685.36 268.736 1680.44 271.014 1679.31 275.95H1661.27C1662.03 260.51 1677.16 254.815 1693.56 254.815Z" fill="#232738"></path><path fill-rule="evenodd" clip-rule="evenodd" d="M1406.98 256.081H1385.92L1368.01 307.968L1350.73 256.081H1329.41L1353.25 319.357H1382.77L1406.98 256.081Z" fill="#232738"></path><path fill-rule="evenodd" clip-rule="evenodd" d="M1448.36 268.736C1438.01 268.736 1431.96 272.786 1430.07 281.392H1465.13C1464.12 272.659 1457.19 268.736 1448.36 268.736ZM1484.56 291.642V293.92H1429.94C1431.83 302.779 1438.14 307.335 1449.24 307.335C1456.18 307.335 1461.22 305.057 1464.5 300.881L1483.55 301.893C1478.75 315.814 1464.5 320.623 1449.24 320.623C1426.66 320.623 1410.14 311.385 1410.14 287.593C1410.14 264.307 1426.41 254.815 1448.36 254.815C1473.08 254.815 1484.56 266.585 1484.56 291.642Z" fill="#232738"></path><path fill-rule="evenodd" clip-rule="evenodd" d="M1537.28 254.815C1554.56 254.815 1562.76 264.94 1562.76 282.151V319.357H1542.96V288.225C1542.96 277.975 1539.93 270.635 1529.71 270.635C1518.61 270.635 1513.06 278.734 1513.06 289.997V319.357H1493.39V256.081H1511.8V268.357C1516.85 259.245 1525.3 254.815 1537.28 254.815Z" fill="#232738"></path><path fill-rule="evenodd" clip-rule="evenodd" d="M1610.69 305.437C1621.54 305.437 1629.61 298.982 1629.61 288.099C1629.61 278.734 1623.18 270.635 1610.69 270.635C1599.71 270.635 1592.15 277.215 1592.15 288.099C1592.15 299.742 1600.6 305.437 1610.69 305.437ZM1629.36 266.332V256.081H1648.53V311.005C1648.53 337.201 1636.92 349.097 1610.81 349.097C1593.28 349.097 1577.26 343.023 1576.13 325.558H1595.55C1596.94 330.747 1601.98 333.278 1610.81 333.278C1622.54 333.278 1627.97 327.963 1627.97 316.194V310.246C1622.17 317.206 1614.6 320.623 1604.38 320.623C1585.34 320.623 1571.59 307.968 1571.59 287.34C1571.59 266.838 1585.97 254.815 1604.38 254.815C1615.73 254.815 1623.81 258.486 1629.36 266.332Z" fill="#232738"></path><path d="M511.152 257.364H520.689V267.939C526.707 259.615 535.608 255.453 547.391 255.453C553.409 255.453 558.834 256.812 563.666 259.53C568.498 262.248 572.313 266.07 575.11 270.996C577.907 275.923 579.306 281.614 579.306 288.069C579.306 294.44 577.907 300.088 575.11 305.014C572.397 309.941 568.583 313.763 563.666 316.481C558.834 319.114 553.409 320.431 547.391 320.431C541.881 320.431 536.752 319.411 532.005 317.373C527.258 315.249 523.571 312.192 520.943 308.2V346.422H511.152V257.364ZM545.356 312.659C549.934 312.659 554.045 311.64 557.69 309.601C561.42 307.563 564.302 304.717 566.336 301.065C568.456 297.327 569.515 292.996 569.515 288.069C569.515 283.228 568.456 278.938 566.336 275.201C564.302 271.379 561.42 268.448 557.69 266.41C554.045 264.371 549.934 263.352 545.356 263.352C539.592 263.352 534.506 264.881 530.098 267.939C525.775 270.912 522.723 275.031 520.943 280.297V295.459C522.554 300.64 525.563 304.802 529.971 307.945C534.464 311.087 539.592 312.659 545.356 312.659Z" fill="#232738"></path><path d="M621.376 320.431C614.764 320.431 608.872 319.114 603.701 316.481C598.615 313.848 594.631 310.111 591.749 305.269C588.952 300.343 587.553 294.609 587.553 288.069C587.553 281.614 588.994 275.923 591.876 270.996C594.758 266.07 598.742 262.248 603.829 259.53C608.999 256.812 614.848 255.453 621.376 255.453C627.903 255.453 633.709 256.812 638.795 259.53C643.966 262.248 647.993 266.07 650.875 270.996C653.757 275.923 655.198 281.614 655.198 288.069C655.198 294.609 653.757 300.343 650.875 305.269C648.078 310.111 644.093 313.848 638.923 316.481C633.836 319.114 627.987 320.431 621.376 320.431ZM621.376 312.659C628.666 312.659 634.472 310.45 638.795 306.034C643.203 301.532 645.407 295.544 645.407 288.069C645.407 280.51 643.203 274.521 638.795 270.105C634.472 265.603 628.666 263.352 621.376 263.352C614.085 263.352 608.236 265.603 603.829 270.105C599.505 274.521 597.344 280.51 597.344 288.069C597.344 295.544 599.505 301.532 603.829 306.034C608.236 310.45 614.085 312.659 621.376 312.659Z" fill="#232738"></path><path d="M658.301 257.364H668.474L683.605 306.671L698.481 257.364H707.764L722.768 306.671L737.772 257.364H748.071L728.489 318.52H718.444L703.186 268.703L687.928 318.52H677.756L658.301 257.364Z" fill="#232738"></path><path d="M790.971 320.431C779.866 320.431 771.178 317.585 764.905 311.894C758.717 306.204 755.623 298.262 755.623 288.069C755.623 278.046 758.42 270.105 764.015 264.244C769.609 258.383 777.578 255.453 787.919 255.453C794.87 255.453 800.762 256.812 805.593 259.53C810.425 262.163 814.07 265.815 816.529 270.487C818.987 275.158 820.216 280.467 820.216 286.413V291.764H764.778C765.117 298.729 767.66 303.953 772.407 307.435C777.238 310.918 783.766 312.659 791.988 312.659C795.972 312.659 799.872 312.319 803.686 311.64C807.585 310.875 811.061 309.856 814.113 308.582V316.863C811.57 317.883 808.094 318.732 803.686 319.411C799.363 320.091 795.125 320.431 790.971 320.431ZM811.061 284.757C810.891 278.131 808.857 272.908 804.958 269.085C801.058 265.263 795.336 263.352 787.792 263.352C780.417 263.352 774.78 265.348 770.881 269.34C766.981 273.247 764.947 278.386 764.778 284.757H811.061Z" fill="#232738"></path><path d="M834.253 257.364H843.79V269.34C848.706 261.356 857.904 257.364 871.382 257.364V265.263C856.632 265.263 847.52 270.147 844.044 279.915V318.52H834.253V257.364Z" fill="#232738"></path><path d="M911.731 320.431C900.626 320.431 891.937 317.585 885.665 311.894C879.477 306.204 876.382 298.262 876.382 288.069C876.382 278.046 879.18 270.105 884.775 264.244C890.369 258.383 898.337 255.453 908.679 255.453C915.63 255.453 921.522 256.812 926.353 259.53C931.185 262.163 934.83 265.815 937.288 270.487C939.747 275.158 940.976 280.467 940.976 286.413V291.764H885.537C885.877 298.729 888.42 303.953 893.167 307.435C897.998 310.918 904.526 312.659 912.748 312.659C916.732 312.659 920.632 312.319 924.446 311.64C928.345 310.875 931.821 309.856 934.873 308.582V316.863C932.33 317.883 928.854 318.732 924.446 319.411C920.123 320.091 915.884 320.431 911.731 320.431ZM931.821 284.757C931.651 278.131 929.617 272.908 925.718 269.085C921.818 265.263 916.096 263.352 908.552 263.352C901.177 263.352 895.54 265.348 891.641 269.34C887.741 273.247 885.707 278.386 885.537 284.757H931.821Z" fill="#232738"></path><path d="M984.385 320.431C978.367 320.431 972.942 319.114 968.11 316.481C963.278 313.848 959.464 310.068 956.666 305.142C953.869 300.215 952.47 294.524 952.47 288.069C952.47 281.699 953.827 276.05 956.539 271.124C959.336 266.113 963.151 262.248 967.983 259.53C972.899 256.812 978.367 255.453 984.385 255.453C990.234 255.453 995.405 256.514 999.898 258.638C1004.48 260.676 1008.12 263.692 1010.83 267.684V224.365H1020.62V318.52H1011.09V307.817C1007.87 312.064 1004.05 315.249 999.644 317.373C995.321 319.411 990.234 320.431 984.385 320.431ZM986.42 312.659C992.269 312.659 997.355 311.172 1001.68 308.2C1006.09 305.142 1009.14 300.98 1010.83 295.714V280.425C1009.22 275.158 1006.21 270.996 1001.81 267.939C997.482 264.881 992.354 263.352 986.42 263.352C981.927 263.352 977.816 264.414 974.086 266.537C970.441 268.576 967.559 271.464 965.44 275.201C963.321 278.938 962.261 283.228 962.261 288.069C962.261 292.911 963.321 297.2 965.44 300.937C967.559 304.675 970.441 307.563 974.086 309.601C977.816 311.64 981.927 312.659 986.42 312.659Z" fill="#232738"></path><path d="M1120.46 320.431C1114.61 320.431 1109.48 319.411 1105.07 317.373C1100.75 315.249 1096.97 312.064 1093.75 307.817V318.52H1084.22V224.365H1094.01V267.684C1096.64 263.692 1100.32 260.676 1105.07 258.638C1109.82 256.514 1114.95 255.453 1120.46 255.453C1126.47 255.453 1131.9 256.812 1136.73 259.53C1141.65 262.248 1145.46 266.113 1148.17 271.124C1150.97 276.05 1152.37 281.699 1152.37 288.069C1152.37 294.524 1150.97 300.215 1148.17 305.142C1145.38 310.068 1141.56 313.848 1136.73 316.481C1131.9 319.114 1126.47 320.431 1120.46 320.431ZM1118.42 312.659C1122.91 312.659 1126.98 311.64 1130.63 309.601C1134.36 307.563 1137.28 304.675 1139.4 300.937C1141.52 297.2 1142.58 292.911 1142.58 288.069C1142.58 283.228 1141.52 278.938 1139.4 275.201C1137.28 271.464 1134.36 268.576 1130.63 266.537C1126.98 264.414 1122.91 263.352 1118.42 263.352C1112.66 263.352 1107.53 264.881 1103.04 267.939C1098.63 270.996 1095.62 275.158 1094.01 280.425V295.714C1095.7 300.98 1098.71 305.142 1103.04 308.2C1107.44 311.172 1112.57 312.659 1118.42 312.659Z" fill="#232738"></path><path d="M1169.51 343.746C1165.61 343.746 1162.14 343.364 1159.09 342.6V334.7C1160.02 335.04 1161.33 335.337 1163.03 335.592C1164.81 335.847 1166.29 335.974 1167.48 335.974C1170.36 335.974 1172.69 335.21 1174.47 333.681C1176.25 332.152 1177.86 329.604 1179.3 326.037L1182.61 318.137L1155.53 257.364H1165.95L1187.82 306.798L1208.04 257.364H1218.47L1190.24 326.674C1187.87 332.534 1185.07 336.824 1181.85 339.542C1178.71 342.345 1174.6 343.746 1169.51 343.746Z" fill="#232738"></path><path d="M1016.83 60.9295L1021.73 57.1068C1002.58 31.8148 962.312 21.3006 928.981 32.472C893.341 44.6211 870.231 78.4639 871.222 116.57C872.212 153.699 897.96 185.891 933.935 196.068C969.575 205.925 1004.89 191.476 1021.73 169.462C1012.48 162.57 1003.57 155.67 994.659 148.77C965.284 169.462 939.545 169.134 919.743 147.784C902.578 129.713 901.915 100.799 918.089 81.4211C925.977 71.8011 937.157 65.475 949.446 63.6782C966.938 60.7211 981.786 66.6434 994.659 78.4639C1001.99 72.5176 1009.32 66.7957 1016.83 60.9295H1016.83ZM1248.79 81.7496V37.4006C1248.79 32.8006 1250.44 31.4863 1254.73 31.8148C1262.32 32.1354 1270.24 32.1354 1277.83 31.8148C1282.46 31.4863 1284.1 33.1291 1284.1 37.7291C1283.78 65.9782 1283.78 93.9068 1284.1 122.156C1284.1 144.17 1300.93 162.242 1322.39 164.534C1332.85 165.789 1343.41 163.18 1352.1 157.195C1360.78 151.211 1367 142.259 1369.58 132.013C1370.58 127.742 1370.9 123.142 1370.9 118.55C1370.9 109.71 1370.94 100.879 1370.97 92.0235V91.9594C1371.05 74.1765 1371.13 56.3535 1370.9 38.3863C1370.9 33.1291 1372.22 31.1577 1377.84 31.4863C1385.43 31.8068 1393.35 31.8068 1400.94 31.4863C1404.24 31.4863 1405.89 32.1434 1405.89 35.7577C1405.78 46.3842 1405.86 56.9706 1405.93 67.557C1406.07 88.6977 1406.22 109.79 1404.9 131.027C1402.59 169.462 1367.94 199.034 1328 200.019C1290.38 200.676 1255.39 172.091 1250.44 135.299C1248.9 123.462 1248.82 111.634 1248.75 99.7089C1248.75 93.7213 1248.65 87.7342 1248.46 81.7496H1248.79ZM767.266 159.284V39.7006C767.266 35.6936 767.266 33.7302 768.249 32.7525C769.208 31.8148 771.11 31.8148 774.849 31.8148C777.287 31.8148 779.684 31.8469 782.065 31.887C786.796 31.9591 791.479 32.0312 796.305 31.8068C801.26 31.4863 802.578 33.1291 802.578 38.0577C802.355 62.5803 802.427 87.111 802.498 111.642C802.538 123.903 802.578 136.172 802.578 148.442V190.819C802.578 195.091 801.252 196.405 796.969 196.405C782.118 196.076 767.261 196.076 752.41 196.405C748.119 196.405 746.473 194.105 744.819 191.148C727.834 163.573 710.786 136.037 693.676 108.54L674.194 77.1496L673.906 76.7249C672.716 74.9378 671.693 73.3911 669.239 71.5639C669.239 72.5497 669.16 73.4552 669.08 74.3528C669 75.2584 668.912 76.1639 668.912 77.1496V188.519C668.912 196.405 668.912 196.405 660.657 196.405C658.228 196.405 655.831 196.365 653.449 196.325C648.703 196.206 643.954 196.233 639.209 196.405C634.582 196.725 633.264 195.091 633.264 190.491V38.0577C633.264 33.4577 634.582 31.8068 639.537 31.8068C653.066 32.1434 666.602 32.1434 680.131 31.8068C684.423 31.8068 687.06 33.1291 689.041 36.7434C701.1 56.2974 713.23 75.9476 725.369 95.5897L725.409 95.6458C737.515 115.24 749.622 134.834 761.648 154.356C762.311 155.334 762.887 156.239 763.462 157.137C764.045 158.05 764.621 158.948 765.284 159.942C766.275 159.284 766.93 159.284 767.266 159.284ZM1720.42 31.4863C1725.37 31.4863 1727.02 33.1291 1726.69 38.0577C1726.36 45.7208 1726.36 53.3945 1726.69 61.0577C1726.69 64.9925 1725.37 66.3068 1721.41 66.3068C1714.48 66.1465 1707.63 66.1465 1700.78 66.1465C1693.93 66.1465 1687.08 66.1465 1680.15 65.9862C1674.87 65.9862 1673.55 67.6211 1673.55 72.5497C1673.77 97.473 1673.7 122.236 1673.63 147.063V147.175C1673.59 159.621 1673.55 172.083 1673.55 184.576C1673.55 185.819 1673.56 186.924 1673.57 187.91C1673.62 192.093 1673.64 194.105 1672.64 195.059C1671.71 195.94 1669.9 195.892 1666.4 195.812C1664.93 195.772 1663.47 195.751 1662 195.748C1660.04 195.748 1658.03 195.708 1656.01 195.668C1651.95 195.547 1647.9 195.574 1643.85 195.748C1637.91 196.405 1636.59 193.776 1636.59 188.519C1636.81 163.115 1636.73 137.711 1636.66 112.307C1636.62 99.5967 1636.59 86.9026 1636.59 74.1925C1636.59 70.0894 1636.59 68.0298 1635.56 67.004C1634.53 65.9782 1632.46 65.9782 1628.33 65.9782H1589.39C1585.1 65.9782 1583.12 64.9925 1583.45 60.3925C1583.78 52.5068 1583.78 44.6211 1583.45 36.7434C1583.45 32.472 1585.1 31.1577 1589.06 31.1577C1611.17 31.4783 1633.28 31.4783 1655.39 31.4783H1720.42V31.4863ZM1088.72 38.0577V113.613C1088.72 126.523 1088.8 139.354 1088.89 152.056V152.224C1088.97 164.678 1089.05 177.003 1089.05 189.176C1089.05 193.119 1089.71 195.091 1094.33 195.091H1184.1C1187.73 195.091 1189.05 193.776 1189.05 190.162C1188.72 182.061 1188.72 173.949 1189.05 165.848C1189.39 160.927 1187.4 159.605 1182.45 159.605C1174.2 159.773 1165.87 159.773 1157.49 159.773C1149.12 159.773 1140.7 159.773 1132.29 159.934C1127.34 160.262 1125.69 158.627 1125.69 153.699C1125.9 144.723 1125.83 135.739 1125.76 126.756C1125.72 122.268 1125.69 117.78 1125.69 113.292V38.3783C1125.69 34.8121 1125.69 33.0089 1124.78 32.0873C1123.84 31.1497 1121.95 31.1497 1118.1 31.1497C1115.56 31.1497 1113.03 31.1817 1110.51 31.2218C1105.44 31.2939 1100.38 31.3661 1095.32 31.1417C1090.04 30.8211 1088.72 33.1211 1088.72 38.0497V38.0577ZM511.48 113.613V38.0577C511.48 33.1291 512.799 31.1577 518.081 31.4863C525.672 31.8068 533.591 31.8068 541.183 31.4863C546.792 31.1577 548.774 32.8006 548.447 38.7148C548.273 59.0911 548.247 79.4684 548.367 99.8451V99.9333C548.407 110.159 548.447 120.409 548.447 130.699V189.834C548.447 194.762 547.128 196.405 542.174 196.076C534.037 195.748 525.89 195.748 517.753 196.076C512.799 196.397 511.152 194.762 511.152 189.834C511.648 170.608 511.584 151.575 511.52 132.582V132.566C511.504 126.243 511.48 119.928 511.48 113.613ZM1517.44 189.176V113.613C1517.44 107.282 1517.42 100.967 1517.4 94.6601C1517.34 75.7953 1517.27 57.0187 1517.77 38.0577C1517.77 32.8006 1516.12 31.1577 1510.84 31.4863C1503.25 31.8068 1495.33 31.8068 1487.74 31.4863C1483.45 31.4863 1482.13 32.8006 1482.13 37.072V82.7354C1482.13 94.6761 1482.16 106.593 1482.2 118.494C1482.27 142.255 1482.35 165.976 1482.13 189.834C1482.13 194.762 1483.45 196.405 1488.4 196.076C1495.76 195.748 1503.14 195.748 1510.51 196.076C1515.79 196.397 1517.44 194.434 1517.44 189.176Z" fill="#232738"></path><path d="M0.563477 193.325C0.563477 97.5764 70.5131 16.9778 165.978 2.24724C272.143 -14.12 372.947 60.7501 387.354 167.117C388.589 175.301 388.998 183.484 388.998 191.668C388.998 199.852 384.475 204.762 377.481 205.171C370.895 205.171 365.953 200.261 365.127 192.496C363.493 178.584 362.666 164.253 359.378 151.179C342.092 82.4467 283.251 32.5167 213.302 25.1614C122.769 15.351 40.0664 77.1274 26.487 167.137C16.1953 235.051 40.8934 290.291 95.6197 331.608C97.672 333.245 100.143 334.881 102.614 336.518C109.189 341.418 110.843 348.374 106.728 354.103C102.614 359.832 96.0282 361.059 89.4427 356.558C70.9316 344.692 54.8713 330.38 41.7203 313.195C14.5415 277.596 0.563477 237.916 0.563477 193.315V193.325Z" fill="#FF5F00"></path><path d="M328.105 192.906C327.278 121.319 270.081 63.2152 198.079 61.5785C186.552 61.1793 179.966 52.5765 184.908 43.9937C187.787 39.0835 191.902 37.856 197.252 37.856C235.928 38.2552 270.081 51.349 298.884 77.1274C332.628 106.998 350.731 145.041 351.558 189.642C353.202 275.55 288.193 339.782 212.475 347.965C189.431 350.42 167.622 347.965 145.823 341.009C139.646 338.973 136.359 334.881 136.757 328.335C137.175 322.197 141.29 318.514 147.049 317.696C149.52 317.287 152.807 318.095 155.278 318.923C230.996 341.428 307.94 296.828 324.807 219.922C326.461 211.319 326.87 201.908 328.095 192.906H328.105Z" fill="#FF5F00"></path><path d="M195.19 75.4902C242.514 77.127 277.484 98.4044 300.528 139.722C303.417 144.632 304.234 149.951 299.711 154.043C296.822 156.498 291.482 158.544 287.775 158.135C284.488 157.726 280.782 153.644 278.729 150.36C263.087 122.546 239.635 105.77 207.534 100.45C154.87 91.8575 102.615 134.402 100.134 187.177C99.2626 204.115 102.661 221.001 110.017 236.278C112.906 242.416 111.253 248.145 106.311 251.827C101.379 255.101 96.4476 254.692 91.9145 251.009C90.2706 249.781 89.0252 247.316 87.7998 245.28C52.003 172.456 98.8985 86.5381 179.967 76.3186C185.317 75.8994 190.258 75.8994 195.19 75.4902Z" fill="#FF5F00"></path><path d="M195.19 273.504C174.332 273.58 154.251 265.577 139.145 251.169C124.04 236.76 115.077 217.062 114.132 196.189C113.723 188.005 118.246 182.277 125.24 181.867C131.826 181.458 137.176 185.959 137.594 194.143C139.238 217.456 149.928 234.642 171.329 244.871C204.655 260.42 244.576 239.552 250.743 203.135C251.152 199.861 251.57 196.179 251.978 192.905C252.805 186.368 257.737 181.867 263.506 181.867C269.673 181.867 275.431 186.778 275.431 193.315C275.023 201.099 274.196 208.863 272.143 216.229C262.679 250.191 230.997 273.514 195.19 273.514V273.504Z" fill="#FF5F00"></path></g><defs><clipPath id="clip0_42_6044"><rect width="1728" height="359.29" fill="white"></rect></clipPath></defs></svg> 