<svg id="Capa_1" data-name="Capa 1" xmlns="http://www.w3.org/2000/svg" viewBox="0 0 160 92"><defs><style>.cls-1{fill:#fff;}.cls-2{fill:#df1914;}.cls-3{fill:none;}</style></defs><path class="cls-1" d="M15.42,52a12.76,12.76,0,0,0-8.82,3.7v-3.6H1.89v38.3H6.6V75a12.73,12.73,0,0,0,8.82,3.71c7,0,12.68-6,12.68-13.35S22.42,52,15.42,52m-.36,22.4a9.05,9.05,0,0,1,0-18.08,9.05,9.05,0,0,1,0,18.08"/><path class="cls-1" d="M36.25,78.75h-4.7V52h4.7V57a6.8,6.8,0,0,1,3-3.4,8.14,8.14,0,0,1,4.37-1.41,8,8,0,0,1,4.08,1l-2.46,3.94a9.93,9.93,0,0,0-2.35-.27,6.27,6.27,0,0,0-4.62,2.3,7.21,7.21,0,0,0-2,5Z"/><path class="cls-1" d="M60,51.94a12.79,12.79,0,0,1,8.82,3.71v-3.6h4.7v26.7H68.8V74.94A12.79,12.79,0,0,1,60,78.65c-7,0-12.68-6-12.68-13.36S53,51.94,60,51.94m.36,22.41a9.05,9.05,0,1,0-8.59-9,8.83,8.83,0,0,0,8.59,9"/><path class="cls-1" d="M144.58,51.94a12.77,12.77,0,0,1,8.82,3.71v-3.6h4.71v26.7H153.4V74.94a12.77,12.77,0,0,1-8.82,3.71c-7,0-12.68-6-12.68-13.36s5.68-13.35,12.68-13.35m.36,22.41a9.05,9.05,0,1,0-8.59-9,8.82,8.82,0,0,0,8.59,9"/><path class="cls-1" d="M89.89,78.75A12.4,12.4,0,0,1,80.6,75,13.53,13.53,0,0,1,77,65.35a13.29,13.29,0,0,1,3.64-9.59A12.4,12.4,0,0,1,89.89,52a11.49,11.49,0,0,1,11,7.24L96.62,61a7.1,7.1,0,0,0-7-4.72A7.28,7.28,0,0,0,84,58.89a10.2,10.2,0,0,0,0,12.93,7.28,7.28,0,0,0,5.59,2.62,7.39,7.39,0,0,0,7.29-4.72l4.21,1.79a11.28,11.28,0,0,1-4.34,5.32,12.26,12.26,0,0,1-6.85,1.92"/><path class="cls-1" d="M114.79,78.75a7.14,7.14,0,0,1-5.09-1.89,8,8,0,0,1-2.08-5.68l0-14.87h-4.4V52h4.4v-4.3l4.72-2.54,0,6.84h6.14v4.29H112.3l0,13.33c0,1.68.33,3.22,1,3.82a3.21,3.21,0,0,0,2.2.89,4.42,4.42,0,0,0,1.1-.13,4.89,4.89,0,0,0,1-.33l1.49,4.2a12.74,12.74,0,0,1-4.3.66"/><path class="cls-2" d="M54,18.71a9.53,9.53,0,1,0,9.52,9.52A9.53,9.53,0,0,0,54,18.71m0,15.43a5.91,5.91,0,1,1,5.9-5.91A5.91,5.91,0,0,1,54,34.14"/><path class="cls-2" d="M34.72,24.53a6.62,6.62,0,1,0,6.61,6.61,6.61,6.61,0,0,0-6.61-6.61m0,10.55a3.94,3.94,0,1,1,3.93-3.94,3.94,3.94,0,0,1-3.93,3.94"/><path class="cls-2" d="M79.64,11A13.38,13.38,0,1,0,93,24.38,13.38,13.38,0,0,0,79.64,11m0,22.55a9.18,9.18,0,1,1,9.17-9.18,9.18,9.18,0,0,1-9.17,9.18"/><path class="cls-2" d="M113.85,1.78a18,18,0,1,0,18,18,18,18,0,0,0-18-18"/><path class="cls-1" d="M128.79,47.58a2.75,2.75,0,1,1-.8-1.94,2.61,2.61,0,0,1,.8,1.94m-.39,31.17h-4.71V52h4.71Z"/><rect class="cls-3" y="-5" width="160" height="100"/><rect class="cls-3" y="-5" width="160" height="100"/></svg>