<?xml version="1.0" encoding="utf-8"?>
<!-- Generator: Adobe Illustrator 16.0.0, SVG Export Plug-In . SVG Version: 6.00 Build 0)  -->
<!DOCTYPE svg PUBLIC "-//W3C//DTD SVG 1.1//EN" "http://www.w3.org/Graphics/SVG/1.1/DTD/svg11.dtd">
<svg version="1.1" id="Capa_1" xmlns="http://www.w3.org/2000/svg" xmlns:xlink="http://www.w3.org/1999/xlink" x="0px" y="0px"
	 width="475.15px" height="136.62px" viewBox="0 0 475.15 136.62" enable-background="new 0 0 475.15 136.62" xml:space="preserve">
<g>
	<g>
		<line fill="none" stroke="#813889" stroke-width="5.5574" stroke-miterlimit="10" x1="77.77" y1="68.31" x2="133.97" y2="68.31"/>
		<line fill="none" stroke="#813889" stroke-width="5.5574" stroke-miterlimit="10" x1="-0.03" y1="68.31" x2="57.4" y2="68.31"/>
		<line fill="none" stroke="#813889" stroke-width="5.5574" stroke-miterlimit="10" x1="57.4" y1="68.31" x2="85.54" y2="118.13"/>
		<line fill="none" stroke="#813889" stroke-width="5.5574" stroke-miterlimit="10" x1="19.73" y1="1.63" x2="46.55" y2="49.1"/>
		<line fill="none" stroke="#813889" stroke-width="5.5574" stroke-miterlimit="10" x1="47.34" y1="86.12" x2="19.73" y2="135"/>
		<line fill="none" stroke="#813889" stroke-width="5.5574" stroke-miterlimit="10" x1="86.22" y1="17.29" x2="57.4" y2="68.31"/>
		<polygon fill="#813889" points="8.62,52.44 28.68,52.44 18.65,32.5 		"/>
		<polygon fill="#813889" points="85.54,52.44 105.6,52.44 95.57,32.5 		"/>
		<polygon fill="#813889" points="47.36,119.57 67.43,119.57 57.4,99.63 		"/>
		<polygon fill="#813889" points="8.62,83.25 28.68,83.25 18.65,103.19 		"/>
		<polygon fill="#813889" points="85.54,83.25 105.6,83.25 95.57,103.19 		"/>
		<polygon fill="#813889" points="47.36,17.06 67.43,17.06 57.4,37 		"/>
	</g>
	<g>
		<line fill="none" stroke="#000000" stroke-width="0.99" stroke-miterlimit="10" x1="151.81" y1="69.41" x2="475.12" y2="69.41"/>
		<g>
			<path d="M182.19,91.99c-0.32,3.17-2.93,5.74-6.99,5.74c-4.59,0-7.52-2.89-7.52-7.42c0-3.23,2.01-7.43,7.52-7.43
				c3.1,0,6.44,1.4,6.88,5.13h-1.46c-0.44-2.69-2.85-3.78-5.41-3.78c-3.5,0-5.94,1.96-5.94,6.08c0,3.15,1.65,6.08,5.94,6.08
				c3.38,0,5.03-1.7,5.53-4.4H182.19z"/>
			<path d="M197.37,82.88c4.03,0,7.69,2.44,7.69,7.43s-3.66,7.42-7.69,7.42c-4.02,0-7.68-2.43-7.68-7.42S193.36,82.88,197.37,82.88z
				 M197.37,96.39c3.11,0,6.1-1.83,6.1-6.08c0-4.26-2.99-6.08-6.1-6.08c-3.11,0-6.1,1.82-6.1,6.08
				C191.28,94.56,194.27,96.39,197.37,96.39z"/>
			<path d="M213.06,83.24h1.76l9.89,12.08h0.04V83.24h1.46v14.14h-1.7l-9.94-12.08h-0.04v12.08h-1.46V83.24z"/>
			<path d="M257.18,83.24h1.58l-6.25,14.14h-1.59l-6.32-14.14h1.7l5.47,12.47L257.18,83.24z"/>
			<path d="M272.84,82.88c4.02,0,7.69,2.44,7.69,7.43s-3.66,7.42-7.69,7.42s-7.69-2.43-7.69-7.42S268.82,82.88,272.84,82.88z
				 M272.84,96.39c3.11,0,6.1-1.83,6.1-6.08c0-4.26-3-6.08-6.1-6.08s-6.1,1.82-6.1,6.08C266.73,94.56,269.73,96.39,272.84,96.39z"/>
			<path d="M298.1,87.28c-0.19-2.42-2.15-3.05-4.43-3.05c-2.28,0-4,0.89-4,2.5c0,1.84,1.72,2.28,5.16,2.85
				c2.58,0.44,5.15,1.03,5.15,3.74c0,3.46-3.15,4.42-5.9,4.42c-3.59,0-6.21-1.22-6.42-5.03h1.46c0.26,2.97,2.24,3.69,4.96,3.69
				c2.12,0,4.32-0.58,4.32-2.82c0-2.16-2.57-2.41-5.15-2.83c-3.37-0.54-5.17-1.49-5.17-3.76c0-3.09,2.86-4.1,5.59-4.1
				c2.89,0,5.8,1.03,5.9,4.4H298.1z"/>
			<path d="M333.14,91.99c-0.32,3.17-2.94,5.74-6.99,5.74c-4.6,0-7.53-2.89-7.53-7.42c0-3.23,2-7.43,7.53-7.43
				c3.1,0,6.44,1.4,6.88,5.13h-1.46c-0.44-2.69-2.85-3.78-5.41-3.78c-3.5,0-5.94,1.96-5.94,6.08c0,3.15,1.64,6.08,5.94,6.08
				c3.37,0,5.04-1.7,5.53-4.4H333.14z"/>
			<path d="M350.73,93.08h-7.45l-1.93,4.3h-1.58l6.42-14.14h1.71l6.42,14.14h-1.71L350.73,93.08z M347.02,84.71l-3.15,7.03h6.25
				L347.02,84.71z"/>
			<path d="M361.44,83.24h6.87c4.12,0,6.26,2.63,6.26,7.07c0,3.98-2.08,7.07-6.04,7.07h-7.09V83.24z M362.9,96.03h5.35
				c2.54,0,4.73-1.39,4.73-5.72c0-3.74-1.47-5.72-4.73-5.72h-5.35V96.03z"/>
			<path d="M392.31,93.08h-7.45l-1.93,4.3h-1.58l6.42-14.14h1.71l6.41,14.14h-1.7L392.31,93.08z M388.61,84.71l-3.15,7.03h6.25
				L388.61,84.71z"/>
			<path d="M414.46,83.24h6.87c4.12,0,6.27,2.63,6.27,7.07c0,3.98-2.08,7.07-6.05,7.07h-7.09V83.24z M415.93,96.03h5.35
				c2.54,0,4.73-1.39,4.73-5.72c0-3.74-1.46-5.72-4.73-5.72h-5.35V96.03z"/>
			<path d="M437.71,79.67h1.8l-2.88,2.81h-1.2L437.71,79.67z M435.96,83.24h1.46v14.14h-1.46V83.24z"/>
			<path d="M455.66,93.08h-7.45l-1.92,4.3h-1.59l6.42-14.14h1.7l6.42,14.14h-1.7L455.66,93.08z M451.96,84.71l-3.15,7.03h6.26
				L451.96,84.71z"/>
		</g>
		<path d="M219.77,23.46l22.63,27.81V23.46h2.55v33.62h-1.01l-22.67-27.76v27.76h-2.59V23.46H219.77z"/>
		<path d="M280.19,52.42c-3.36,3.36-7.83,5.05-12.25,5.05c-11.34,0-17.25-7.92-17.3-17c-0.1-8.99,5.77-17.39,17.3-17.39
			c4.42,0,8.88,1.69,12.25,5.05l-1.78,1.54c-2.88-2.89-6.68-4.28-10.47-4.28c-9.8,0-14.85,6.92-14.8,14.99
			c0.09,7.88,5.1,14.7,14.8,14.7c3.79,0,7.63-1.44,10.51-4.28L280.19,52.42z"/>
		<path d="M317.47,40.32c-0.05,8.83-5.67,17.34-16.96,17.34c-11.29,0-16.95-8.55-16.95-17.44c0-9.03,5.63-17.29,16.95-17.29
			C311.85,22.93,317.52,31.24,317.47,40.32z M286.11,40.27c0.04,7.58,4.85,14.99,14.4,14.99c9.61,0,14.46-7.4,14.46-14.99
			c0-7.78-4.81-14.94-14.46-14.94C290.86,25.33,286.06,32.34,286.11,40.27z"/>
		<path d="M460.68,45.84h-13.49l-4.82,11.23h-6.87l15.09-33.62h6.91l15.08,33.62h-6.91L460.68,45.84z M454.04,30.52l-4.3,9.6h8.4
			L454.04,30.52z"/>
		<path d="M362.56,57.08h-7.55l-9.79-11.23h-6.1v11.23h-6.34V23.41c5.33,0,10.66,0.04,16,0.04c7.92,0.06,12.1,5.33,12.1,11.14
			c0,4.61-2.12,9.27-8.5,10.57l10.19,11.48V57.08z M339.11,29.37v10.75l9.66,0.01c4.03,0,5.76-2.69,5.76-5.39
			c0-2.68-1.78-5.37-5.76-5.37H339.11z"/>
		<path d="M367.61,57.08V34.44h6.29v22.64H367.61z"/>
		<path d="M414.26,40.46c-0.1,8.69-5.42,17.39-17.25,17.39c-11.81,0-17.28-8.5-17.28-17.34c0-8.84,5.66-17.72,17.28-17.72
			C408.59,22.79,414.36,31.67,414.26,40.46z M385.97,40.6c0.14,5.52,3.12,11.43,11.04,11.43c7.94,0,10.91-5.96,11-11.48
			c0.1-5.66-3.07-12.01-11-12.01C389.09,28.55,385.82,34.93,385.97,40.6z"/>
		<path d="M421.92,23.46v5.92h7.24c0,0,0,13.34,0,13.35c0,3.94-2.03,8.3-6.34,8.92c-1.09,0.15-2.2,0.18-3.29,0.06
			c-0.23-0.03-2.2-0.43-2.22-0.37c-0.84,1.53-1.78,3.01-2.66,4.52c-0.13,0.21-0.25,0.42-0.38,0.63c1.76,0.6,4.34,1.29,6.44,1.29
			c9.26,0,14.79-6.34,14.79-15.04V23.46C429.97,23.46,427.4,23.46,421.92,23.46z"/>
		<rect x="367.61" y="23.46" width="6.29" height="7.94"/>
		<path d="M179.02,32.62c0,3.41-2.08,6.06-5.4,7.11c4.17,1.14,6.54,4.5,6.54,8.34c0,6.82-6.35,8.67-12.04,8.67
			c-4.83,0-8.77,0-13.61,0V23.57c4.79,0,8.77,0,13.61,0C173.72,23.57,179.02,26.32,179.02,32.62z M157.08,38.59h11.37
			c3.98,0,8.15-1.23,8.15-5.97c0-4.83-4.36-6.87-8.48-6.87h-11.04V38.59z M157.08,54.28h11.04c4.17,0,9.52-0.99,9.52-6.25
			c-0.04-5.16-4.74-7.01-9.2-7.01c-3.97,0-7.4,0-11.37,0V54.28z"/>
		<path d="M199.22,23.46h-2.83L181.3,57.08h2.79l5.71-13.04l1.35-3.04h13.26l1.35,3.04l5.76,13.04h2.78L199.22,23.46z M192.21,38.6
			l5.56-12.64l5.57,12.64H192.21z"/>
	</g>
</g>
</svg>
